# xmcd
#
# Track frame offsets:
# 183
# 13285
# 26538
# 38458
# 50985
# 65003
# 77998
# 87603
# 99913
# 114295
# 124513
# 136530
#
# Disc length: 1981 seconds
#
#
# Revision: 0
# Processed by: cddbd v1.5.2PL0 Copyright (c) Steve Scherf et al.
# Submitted via: FreeRIP 2.945 
#
DISCID=9707bb0c
DTITLE=Stevie Wonder - Greatest Hits Vol. 1
DYEAR=1900
DGENRE=R&B
TTITLE0=Uptight (Everything's Alright)
TTITLE1=I'm Wondering
TTITLE2=I Was Made to Love Her
TTITLE3=Hey Love
TTITLE4=Blowing in the Wind
TTITLE5=A Place in the Sun
TTITLE6=Contract on Love
TTITLE7=Work Out Stevie, Work Out
TTITLE8=Fingertips (Pt. II)
TTITLE9=Castles in the Sand
TTITLE10=Hey Harmonica Man
TTITLE11=Nothing's to Good for My Baby
EXTD=
EXTT0=
EXTT1=
EXTT2=
EXTT3=
EXTT4=
EXTT5=
EXTT6=
EXTT7=
EXTT8=
EXTT9=
EXTT10=
EXTT11=
PLAYORDER=
